<svg xmlns="http://www.w3.org/2000/svg" width="971" height="67" viewBox="0 0 971 67" fill="none"><path d="M0.648 8.2H22.728C27.72 8.2 32.1147 9.11733 35.912 10.952C39.752 12.744 42.7173 15.3253 44.808 18.696C46.9413 22.0667 48.008 26.0347 48.008 30.6C48.008 35.1653 46.9413 39.1333 44.808 42.504C42.7173 45.8747 39.752 48.4773 35.912 50.312C32.1147 52.104 27.72 53 22.728 53H0.648V8.2ZM22.088 41.224C25.3307 41.224 27.912 40.3067 29.832 38.472C31.7947 36.5947 32.776 33.9707 32.776 30.6C32.776 27.2293 31.7947 24.6267 29.832 22.792C27.912 20.9147 25.3307 19.976 22.088 19.976H15.752V41.224H22.088ZM71.571 53.64C67.6883 53.64 64.1897 52.872 61.075 51.336C58.003 49.7573 55.5923 47.6027 53.843 44.872C52.0937 42.0987 51.219 38.9627 51.219 35.464C51.219 31.9653 52.0937 28.8507 53.843 26.12C55.5923 23.3467 58.003 21.192 61.075 19.656C64.1897 18.12 67.6883 17.352 71.571 17.352C75.4963 17.352 78.995 18.12 82.067 19.656C85.1817 21.192 87.5923 23.3467 89.299 26.12C91.0483 28.8507 91.923 31.9653 91.923 35.464C91.923 38.9627 91.0483 42.0987 89.299 44.872C87.5923 47.6027 85.1817 49.7573 82.067 51.336C78.995 52.872 75.4963 53.64 71.571 53.64ZM71.571 42.376C73.235 42.376 74.6003 41.7787 75.667 40.584C76.7337 39.3467 77.267 37.64 77.267 35.464C77.267 33.288 76.7337 31.6027 75.667 30.408C74.6003 29.2133 73.235 28.616 71.571 28.616C69.907 28.616 68.5417 29.2133 67.475 30.408C66.4083 31.6027 65.875 33.288 65.875 35.464C65.875 37.64 66.4083 39.3467 67.475 40.584C68.5417 41.7787 69.907 42.376 71.571 42.376ZM154.614 17.992L140.214 53.704C138.379 58.2693 136.096 61.4693 133.366 63.304C130.635 65.1387 127.286 66.056 123.318 66.056C121.355 66.056 119.371 65.7573 117.366 65.16C115.403 64.6053 113.846 63.8587 112.694 62.92L117.494 53C118.219 53.5547 119.03 54.0027 119.926 54.344C120.864 54.6853 121.76 54.856 122.614 54.856C124.192 54.856 125.387 54.3867 126.198 53.448L111.477 17.992H126.326L133.558 36.744L140.918 17.992H154.614ZM174.384 53.64C170.501 53.64 167.002 52.872 163.888 51.336C160.816 49.7573 158.405 47.6027 156.656 44.872C154.906 42.0987 154.032 38.9627 154.032 35.464C154.032 31.9653 154.906 28.8507 156.656 26.12C158.405 23.3467 160.816 21.192 163.888 19.656C167.002 18.12 170.501 17.352 174.384 17.352C178.309 17.352 181.808 18.12 184.88 19.656C187.994 21.192 190.405 23.3467 192.112 26.12C193.861 28.8507 194.736 31.9653 194.736 35.464C194.736 38.9627 193.861 42.0987 192.112 44.872C190.405 47.6027 187.994 49.7573 184.88 51.336C181.808 52.872 178.309 53.64 174.384 53.64ZM174.384 42.376C176.048 42.376 177.413 41.7787 178.48 40.584C179.546 39.3467 180.08 37.64 180.08 35.464C180.08 33.288 179.546 31.6027 178.48 30.408C177.413 29.2133 176.048 28.616 174.384 28.616C172.72 28.616 171.354 29.2133 170.288 30.408C169.221 31.6027 168.688 33.288 168.688 35.464C168.688 37.64 169.221 39.3467 170.288 40.584C171.354 41.7787 172.72 42.376 174.384 42.376ZM237.535 17.992V53H223.775V49.672C222.495 50.9947 221.001 51.9973 219.295 52.68C217.588 53.32 215.775 53.64 213.855 53.64C209.417 53.64 205.855 52.296 203.167 49.608C200.479 46.8773 199.135 42.7813 199.135 37.32V17.992H213.599V34.824C213.599 37.2133 213.983 38.92 214.751 39.944C215.519 40.968 216.649 41.48 218.143 41.48C219.551 41.48 220.724 40.9253 221.663 39.816C222.601 38.664 223.071 36.872 223.071 34.44V17.992H237.535ZM287.458 17.352C291.767 17.352 295.223 18.6533 297.826 21.256C300.471 23.8587 301.794 27.784 301.794 33.032V53H287.33V35.528C287.33 31.5173 285.9 29.512 283.042 29.512C281.42 29.512 280.098 30.088 279.074 31.24C278.092 32.3493 277.602 34.12 277.602 36.552V53H263.138V5.512H277.602V20.808C280.29 18.504 283.575 17.352 287.458 17.352ZM323.755 17.352C329.899 17.352 334.592 18.7387 337.835 21.512C341.078 24.2427 342.699 28.4667 342.699 34.184V53H329.259V48.392C327.595 51.8907 324.288 53.64 319.339 53.64C316.566 53.64 314.198 53.1707 312.235 52.232C310.315 51.2507 308.843 49.9493 307.819 48.328C306.838 46.664 306.347 44.808 306.347 42.76C306.347 39.304 307.67 36.68 310.315 34.888C312.96 33.096 316.971 32.2 322.347 32.2H328.171C327.702 29.4693 325.504 28.104 321.579 28.104C320 28.104 318.4 28.36 316.779 28.872C315.158 29.3413 313.771 30.0027 312.619 30.856L308.011 21.32C310.016 20.0827 312.427 19.1227 315.243 18.44C318.102 17.7147 320.939 17.352 323.755 17.352ZM323.691 44.936C324.715 44.936 325.632 44.6587 326.443 44.104C327.254 43.5493 327.851 42.7173 328.235 41.608V39.176H324.651C321.707 39.176 320.235 40.1573 320.235 42.12C320.235 42.9307 320.534 43.6133 321.131 44.168C321.771 44.68 322.624 44.936 323.691 44.936ZM387.301 17.992L373.221 53H358.245L344.165 17.992H359.013L366.053 36.744L373.605 17.992H387.301ZM425.823 35.464C425.823 35.6773 425.759 36.808 425.631 38.856H401.311C401.823 40.1787 402.676 41.2027 403.871 41.928C405.066 42.6107 406.559 42.952 408.351 42.952C409.887 42.952 411.167 42.76 412.191 42.376C413.258 41.992 414.41 41.3307 415.647 40.392L423.199 48.008C419.786 51.7627 414.687 53.64 407.903 53.64C403.679 53.64 399.967 52.872 396.767 51.336C393.567 49.7573 391.092 47.5813 389.343 44.808C387.594 42.0347 386.719 38.92 386.719 35.464C386.719 31.9653 387.572 28.8507 389.279 26.12C391.028 23.3467 393.396 21.192 396.383 19.656C399.412 18.12 402.804 17.352 406.559 17.352C410.1 17.352 413.322 18.056 416.223 19.464C419.167 20.872 421.492 22.9413 423.199 25.672C424.948 28.4027 425.823 31.6667 425.823 35.464ZM406.687 27.208C405.194 27.208 403.956 27.6133 402.975 28.424C401.994 29.2347 401.354 30.3867 401.055 31.88H412.319C412.02 30.4293 411.38 29.2987 410.399 28.488C409.418 27.6347 408.18 27.208 406.687 27.208ZM465.255 17.352C471.399 17.352 476.092 18.7387 479.335 21.512C482.578 24.2427 484.199 28.4667 484.199 34.184V53H470.759V48.392C469.095 51.8907 465.788 53.64 460.839 53.64C458.066 53.64 455.698 53.1707 453.735 52.232C451.815 51.2507 450.343 49.9493 449.319 48.328C448.338 46.664 447.847 44.808 447.847 42.76C447.847 39.304 449.17 36.68 451.815 34.888C454.46 33.096 458.471 32.2 463.847 32.2H469.671C469.202 29.4693 467.004 28.104 463.079 28.104C461.5 28.104 459.9 28.36 458.279 28.872C456.658 29.3413 455.271 30.0027 454.119 30.856L449.511 21.32C451.516 20.0827 453.927 19.1227 456.743 18.44C459.602 17.7147 462.439 17.352 465.255 17.352ZM465.191 44.936C466.215 44.936 467.132 44.6587 467.943 44.104C468.754 43.5493 469.351 42.7173 469.735 41.608V39.176H466.151C463.207 39.176 461.735 40.1573 461.735 42.12C461.735 42.9307 462.034 43.6133 462.631 44.168C463.271 44.68 464.124 44.936 465.191 44.936ZM514.77 17.352C519.079 17.352 522.535 18.6533 525.138 21.256C527.783 23.8587 529.106 27.784 529.106 33.032V53H514.642V35.528C514.642 31.5173 513.213 29.512 510.354 29.512C508.733 29.512 507.41 30.088 506.386 31.24C505.405 32.3493 504.914 34.12 504.914 36.552V53H490.45V17.992H504.21V21.448C505.575 20.0827 507.154 19.0587 508.946 18.376C510.738 17.6933 512.679 17.352 514.77 17.352ZM573.739 17.992L559.339 53.704C557.504 58.2693 555.221 61.4693 552.491 63.304C549.76 65.1387 546.411 66.056 542.443 66.056C540.48 66.056 538.496 65.7573 536.491 65.16C534.528 64.6053 532.971 63.8587 531.819 62.92L536.619 53C537.344 53.5547 538.155 54.0027 539.051 54.344C539.989 54.6853 540.885 54.856 541.739 54.856C543.317 54.856 544.512 54.3867 545.323 53.448L530.602 17.992H545.451L552.683 36.744L560.043 17.992H573.739Z" fill="#323232"></path><path d="M633.538 17.992V65.416H619.074V50.632C617.026 52.6373 614.06 53.64 610.178 53.64C607.106 53.64 604.268 52.9147 601.666 51.464C599.106 49.9707 597.058 47.8587 595.522 45.128C594.028 42.3547 593.282 39.1547 593.282 35.528C593.282 31.9013 594.028 28.7013 595.522 25.928C597.058 23.1547 599.106 21.0427 601.666 19.592C604.268 18.0987 607.106 17.352 610.178 17.352C614.487 17.352 617.687 18.5253 619.778 20.872V17.992H633.538ZM613.634 42.376C615.298 42.376 616.663 41.7787 617.73 40.584C618.796 39.3893 619.33 37.704 619.33 35.528C619.33 33.352 618.796 31.6667 617.73 30.472C616.663 29.2347 615.298 28.616 613.634 28.616C611.97 28.616 610.604 29.2347 609.538 30.472C608.471 31.6667 607.938 33.352 607.938 35.528C607.938 37.704 608.471 39.3893 609.538 40.584C610.604 41.7787 611.97 42.376 613.634 42.376ZM678.222 17.992V53H664.462V49.672C663.182 50.9947 661.689 51.9973 659.982 52.68C658.275 53.32 656.462 53.64 654.542 53.64C650.105 53.64 646.542 52.296 643.854 49.608C641.166 46.8773 639.822 42.7813 639.822 37.32V17.992H654.286V34.824C654.286 37.2133 654.67 38.92 655.438 39.944C656.206 40.968 657.337 41.48 658.83 41.48C660.238 41.48 661.411 40.9253 662.35 39.816C663.289 38.664 663.758 36.872 663.758 34.44V17.992H678.222ZM721.886 35.464C721.886 35.6773 721.822 36.808 721.694 38.856H697.374C697.886 40.1787 698.739 41.2027 699.934 41.928C701.128 42.6107 702.622 42.952 704.414 42.952C705.95 42.952 707.23 42.76 708.254 42.376C709.32 41.992 710.472 41.3307 711.71 40.392L719.262 48.008C715.848 51.7627 710.75 53.64 703.966 53.64C699.742 53.64 696.03 52.872 692.83 51.336C689.63 49.7573 687.155 47.5813 685.406 44.808C683.656 42.0347 682.782 38.92 682.782 35.464C682.782 31.9653 683.635 28.8507 685.342 26.12C687.091 23.3467 689.459 21.192 692.446 19.656C695.475 18.12 698.867 17.352 702.622 17.352C706.163 17.352 709.384 18.056 712.286 19.464C715.23 20.872 717.555 22.9413 719.262 25.672C721.011 28.4027 721.886 31.6667 721.886 35.464ZM702.75 27.208C701.256 27.208 700.019 27.6133 699.038 28.424C698.056 29.2347 697.416 30.3867 697.118 31.88H708.382C708.083 30.4293 707.443 29.2987 706.462 28.488C705.48 27.6347 704.243 27.208 702.75 27.208ZM740.146 53.64C737.159 53.64 734.215 53.32 731.314 52.68C728.413 52.04 726.066 51.208 724.274 50.184L728.242 40.648C729.863 41.6293 731.783 42.3973 734.002 42.952C736.221 43.5067 738.375 43.784 740.466 43.784C742.13 43.784 743.282 43.656 743.922 43.4C744.605 43.1013 744.946 42.6747 744.946 42.12C744.946 41.5653 744.519 41.1813 743.666 40.968C742.855 40.7547 741.511 40.5413 739.634 40.328C736.775 39.9867 734.343 39.56 732.338 39.048C730.333 38.4933 728.562 37.448 727.026 35.912C725.533 34.376 724.786 32.1787 724.786 29.32C724.786 27.0587 725.469 25.032 726.834 23.24C728.199 21.448 730.226 20.0187 732.914 18.952C735.645 17.8853 738.909 17.352 742.706 17.352C745.351 17.352 747.933 17.608 750.45 18.12C753.01 18.5893 755.186 19.2933 756.978 20.232L753.01 29.768C749.938 28.0613 746.567 27.208 742.898 27.208C739.741 27.208 738.162 27.7627 738.162 28.872C738.162 29.4267 738.589 29.832 739.442 30.088C740.295 30.3013 741.639 30.5147 743.474 30.728C746.333 31.0693 748.743 31.5173 750.706 32.072C752.711 32.6267 754.461 33.672 755.954 35.208C757.49 36.744 758.258 38.9413 758.258 41.8C758.258 43.976 757.575 45.96 756.21 47.752C754.845 49.544 752.797 50.9733 750.066 52.04C747.335 53.1067 744.029 53.64 740.146 53.64ZM788.43 51.784C786.254 53.0213 783.288 53.64 779.534 53.64C774.627 53.64 770.851 52.4667 768.206 50.12C765.56 47.7307 764.238 44.168 764.238 39.432V30.472H759.438V19.912H764.238V10.12H778.702V19.912H785.87V30.472H778.702V39.304C778.702 40.3707 778.979 41.2027 779.534 41.8C780.088 42.3973 780.814 42.696 781.71 42.696C782.947 42.696 784.035 42.376 784.974 41.736L788.43 51.784ZM792.075 17.992H806.539V53H792.075V17.992ZM799.307 15.176C796.704 15.176 794.592 14.4933 792.971 13.128C791.392 11.72 790.603 9.94933 790.603 7.816C790.603 5.68266 791.392 3.93333 792.971 2.568C794.592 1.16 796.704 0.455997 799.307 0.455997C801.952 0.455997 804.064 1.11733 805.643 2.44C807.222 3.76266 808.011 5.46933 808.011 7.56C808.011 9.77866 807.222 11.6133 805.643 13.064C804.064 14.472 801.952 15.176 799.307 15.176ZM831.446 53.64C827.563 53.64 824.065 52.872 820.95 51.336C817.878 49.7573 815.467 47.6027 813.718 44.872C811.969 42.0987 811.094 38.9627 811.094 35.464C811.094 31.9653 811.969 28.8507 813.718 26.12C815.467 23.3467 817.878 21.192 820.95 19.656C824.065 18.12 827.563 17.352 831.446 17.352C835.371 17.352 838.87 18.12 841.942 19.656C845.057 21.192 847.467 23.3467 849.174 26.12C850.923 28.8507 851.798 31.9653 851.798 35.464C851.798 38.9627 850.923 42.0987 849.174 44.872C847.467 47.6027 845.057 49.7573 841.942 51.336C838.87 52.872 835.371 53.64 831.446 53.64ZM831.446 42.376C833.11 42.376 834.475 41.7787 835.542 40.584C836.609 39.3467 837.142 37.64 837.142 35.464C837.142 33.288 836.609 31.6027 835.542 30.408C834.475 29.2133 833.11 28.616 831.446 28.616C829.782 28.616 828.417 29.2133 827.35 30.408C826.283 31.6027 825.75 33.288 825.75 35.464C825.75 37.64 826.283 39.3467 827.35 40.584C828.417 41.7787 829.782 42.376 831.446 42.376ZM880.645 17.352C884.954 17.352 888.41 18.6533 891.013 21.256C893.658 23.8587 894.981 27.784 894.981 33.032V53H880.517V35.528C880.517 31.5173 879.088 29.512 876.229 29.512C874.608 29.512 873.285 30.088 872.261 31.24C871.28 32.3493 870.789 34.12 870.789 36.552V53H856.325V17.992H870.085V21.448C871.45 20.0827 873.029 19.0587 874.821 18.376C876.613 17.6933 878.554 17.352 880.645 17.352ZM914.958 53.64C911.972 53.64 909.028 53.32 906.127 52.68C903.225 52.04 900.879 51.208 899.087 50.184L903.055 40.648C904.676 41.6293 906.596 42.3973 908.815 42.952C911.033 43.5067 913.188 43.784 915.279 43.784C916.943 43.784 918.095 43.656 918.735 43.4C919.417 43.1013 919.759 42.6747 919.759 42.12C919.759 41.5653 919.332 41.1813 918.479 40.968C917.668 40.7547 916.324 40.5413 914.447 40.328C911.588 39.9867 909.156 39.56 907.151 39.048C905.145 38.4933 903.375 37.448 901.839 35.912C900.345 34.376 899.599 32.1787 899.599 29.32C899.599 27.0587 900.281 25.032 901.647 23.24C903.012 21.448 905.039 20.0187 907.727 18.952C910.457 17.8853 913.721 17.352 917.519 17.352C920.164 17.352 922.745 17.608 925.263 18.12C927.823 18.5893 929.999 19.2933 931.791 20.232L927.823 29.768C924.751 28.0613 921.38 27.208 917.711 27.208C914.553 27.208 912.975 27.7627 912.975 28.872C912.975 29.4267 913.401 29.832 914.255 30.088C915.108 30.3013 916.452 30.5147 918.287 30.728C921.145 31.0693 923.556 31.5173 925.519 32.072C927.524 32.6267 929.273 33.672 930.767 35.208C932.303 36.744 933.071 38.9413 933.071 41.8C933.071 43.976 932.388 45.96 931.023 47.752C929.657 49.544 927.609 50.9733 924.879 52.04C922.148 53.1067 918.841 53.64 914.958 53.64ZM946.873 35.848C946.873 33.8427 947.321 32.1787 948.217 30.856C949.113 29.4907 950.393 28.0187 952.057 26.44C953.124 25.416 953.892 24.584 954.361 23.944C954.873 23.304 955.129 22.6213 955.129 21.896C955.129 20.9573 954.724 20.232 953.913 19.72C953.102 19.1653 952.078 18.888 950.841 18.888C949.476 18.888 948.196 19.2933 947.001 20.104C945.806 20.872 944.868 21.9173 944.185 23.24L932.793 17.544C934.5 14.3013 937.017 11.7627 940.345 9.928C943.716 8.09333 947.854 7.176 952.761 7.176C957.966 7.176 962.19 8.24267 965.433 10.376C968.676 12.5093 970.297 15.5173 970.297 19.4C970.297 21.192 969.977 22.7707 969.337 24.136C968.74 25.4587 968.014 26.5893 967.161 27.528C966.308 28.424 965.22 29.4267 963.897 30.536C962.532 31.7307 961.55 32.6907 960.953 33.416C960.356 34.1413 960.057 34.952 960.057 35.848H946.873ZM953.465 53.64C950.99 53.64 948.964 52.8933 947.385 51.4C945.806 49.9067 945.017 48.0933 945.017 45.96C945.017 43.784 945.806 41.992 947.385 40.584C948.964 39.1333 950.99 38.408 953.465 38.408C955.94 38.408 957.966 39.1333 959.545 40.584C961.124 41.992 961.913 43.784 961.913 45.96C961.913 48.0933 961.124 49.9067 959.545 51.4C957.966 52.8933 955.94 53.64 953.465 53.64Z" fill="#22BAC9"></path></svg>