<svg width="470" height="28" viewBox="0 0 470 28" fill="none" xmlns="http://www.w3.org/2000/svg">
<path d="M10.024 9.2V19H8.204V14.8H3.136V19H1.316V9.2H3.136V13.246H8.204V9.2H10.024ZM15.842 19.098C15.086 19.098 14.4047 18.9347 13.798 18.608C13.1913 18.2813 12.7153 17.8287 12.37 17.25C12.034 16.662 11.866 15.9993 11.866 15.262C11.866 14.5247 12.034 13.8667 12.37 13.288C12.7153 12.7093 13.1913 12.2567 13.798 11.93C14.4047 11.6033 15.086 11.44 15.842 11.44C16.6073 11.44 17.2933 11.6033 17.9 11.93C18.5067 12.2567 18.978 12.7093 19.314 13.288C19.6593 13.8667 19.832 14.5247 19.832 15.262C19.832 15.9993 19.6593 16.662 19.314 17.25C18.978 17.8287 18.5067 18.2813 17.9 18.608C17.2933 18.9347 16.6073 19.098 15.842 19.098ZM15.842 17.6C16.486 17.6 17.018 17.3853 17.438 16.956C17.858 16.5267 18.068 15.962 18.068 15.262C18.068 14.562 17.858 13.9973 17.438 13.568C17.018 13.1387 16.486 12.924 15.842 12.924C15.198 12.924 14.666 13.1387 14.246 13.568C13.8353 13.9973 13.63 14.562 13.63 15.262C13.63 15.962 13.8353 16.5267 14.246 16.956C14.666 17.3853 15.198 17.6 15.842 17.6ZM30.9414 11.44C31.8841 11.44 32.6308 11.7153 33.1814 12.266C33.7321 12.8073 34.0074 13.624 34.0074 14.716V19H32.2574V14.94C32.2574 14.2867 32.1128 13.7967 31.8234 13.47C31.5341 13.134 31.1188 12.966 30.5774 12.966C29.9894 12.966 29.5181 13.162 29.1634 13.554C28.8088 13.9367 28.6314 14.4873 28.6314 15.206V19H26.8814V14.94C26.8814 14.2867 26.7368 13.7967 26.4474 13.47C26.1581 13.134 25.7428 12.966 25.2014 12.966C24.6041 12.966 24.1281 13.1573 23.7734 13.54C23.4281 13.9227 23.2554 14.478 23.2554 15.206V19H21.5054V11.524H23.1714V12.476C23.4514 12.14 23.8014 11.8833 24.2214 11.706C24.6414 11.5287 25.1081 11.44 25.6214 11.44C26.1814 11.44 26.6761 11.5473 27.1054 11.762C27.5441 11.9673 27.8894 12.2753 28.1414 12.686C28.4494 12.294 28.8461 11.9907 29.3314 11.776C29.8168 11.552 30.3534 11.44 30.9414 11.44ZM43.3401 15.304C43.3401 15.4253 43.3307 15.598 43.3121 15.822H37.4461C37.5487 16.3727 37.8147 16.8113 38.2441 17.138C38.6827 17.4553 39.2241 17.614 39.8681 17.614C40.6894 17.614 41.3661 17.3433 41.8981 16.802L42.8361 17.88C42.5001 18.2813 42.0754 18.5847 41.5621 18.79C41.0487 18.9953 40.4701 19.098 39.8261 19.098C39.0047 19.098 38.2814 18.9347 37.6561 18.608C37.0307 18.2813 36.5454 17.8287 36.2001 17.25C35.8641 16.662 35.6961 15.9993 35.6961 15.262C35.6961 14.534 35.8594 13.8807 36.1861 13.302C36.5221 12.714 36.9841 12.2567 37.5721 11.93C38.1601 11.6033 38.8227 11.44 39.5601 11.44C40.2881 11.44 40.9367 11.6033 41.5061 11.93C42.0847 12.2473 42.5327 12.7 42.8501 13.288C43.1767 13.8667 43.3401 14.5387 43.3401 15.304ZM39.5601 12.84C39.0001 12.84 38.5241 13.008 38.1321 13.344C37.7494 13.6707 37.5161 14.1093 37.4321 14.66H41.6741C41.5994 14.1187 41.3707 13.68 40.9881 13.344C40.6054 13.008 40.1294 12.84 39.5601 12.84Z" fill="#323232"/>
<path d="M101.672 16.732H96.772L95.806 19H93.93L98.34 9.2H100.132L104.556 19H102.652L101.672 16.732ZM101.07 15.304L99.222 11.02L97.388 15.304H101.07ZM109.778 11.44C110.506 11.44 111.155 11.5987 111.724 11.916C112.303 12.2333 112.756 12.6813 113.082 13.26C113.409 13.8387 113.572 14.506 113.572 15.262C113.572 16.018 113.409 16.69 113.082 17.278C112.756 17.8567 112.303 18.3047 111.724 18.622C111.155 18.9393 110.506 19.098 109.778 19.098C109.265 19.098 108.794 19.0093 108.364 18.832C107.944 18.6547 107.59 18.3887 107.3 18.034V19H105.634V8.612H107.384V12.434C107.683 12.1073 108.033 11.86 108.434 11.692C108.845 11.524 109.293 11.44 109.778 11.44ZM109.582 17.6C110.226 17.6 110.754 17.3853 111.164 16.956C111.584 16.5267 111.794 15.962 111.794 15.262C111.794 14.562 111.584 13.9973 111.164 13.568C110.754 13.1387 110.226 12.924 109.582 12.924C109.162 12.924 108.784 13.022 108.448 13.218C108.112 13.4047 107.846 13.6753 107.65 14.03C107.454 14.3847 107.356 14.7953 107.356 15.262C107.356 15.7287 107.454 16.1393 107.65 16.494C107.846 16.8487 108.112 17.124 108.448 17.32C108.784 17.5067 109.162 17.6 109.582 17.6ZM118.592 19.098C117.836 19.098 117.155 18.9347 116.548 18.608C115.941 18.2813 115.465 17.8287 115.12 17.25C114.784 16.662 114.616 15.9993 114.616 15.262C114.616 14.5247 114.784 13.8667 115.12 13.288C115.465 12.7093 115.941 12.2567 116.548 11.93C117.155 11.6033 117.836 11.44 118.592 11.44C119.357 11.44 120.043 11.6033 120.65 11.93C121.257 12.2567 121.728 12.7093 122.064 13.288C122.409 13.8667 122.582 14.5247 122.582 15.262C122.582 15.9993 122.409 16.662 122.064 17.25C121.728 17.8287 121.257 18.2813 120.65 18.608C120.043 18.9347 119.357 19.098 118.592 19.098ZM118.592 17.6C119.236 17.6 119.768 17.3853 120.188 16.956C120.608 16.5267 120.818 15.962 120.818 15.262C120.818 14.562 120.608 13.9973 120.188 13.568C119.768 13.1387 119.236 12.924 118.592 12.924C117.948 12.924 117.416 13.1387 116.996 13.568C116.585 13.9973 116.38 14.562 116.38 15.262C116.38 15.962 116.585 16.5267 116.996 16.956C117.416 17.3853 117.948 17.6 118.592 17.6ZM131.493 11.524V19H129.827V18.048C129.547 18.384 129.197 18.6453 128.777 18.832C128.357 19.0093 127.905 19.098 127.419 19.098C126.421 19.098 125.632 18.8227 125.053 18.272C124.484 17.712 124.199 16.886 124.199 15.794V11.524H125.949V15.556C125.949 16.228 126.099 16.732 126.397 17.068C126.705 17.3947 127.139 17.558 127.699 17.558C128.325 17.558 128.819 17.3667 129.183 16.984C129.557 16.592 129.743 16.032 129.743 15.304V11.524H131.493ZM138.279 18.594C138.073 18.762 137.821 18.888 137.523 18.972C137.233 19.056 136.925 19.098 136.599 19.098C135.777 19.098 135.143 18.8833 134.695 18.454C134.247 18.0247 134.023 17.3993 134.023 16.578V12.98H132.791V11.58H134.023V9.872H135.773V11.58H137.775V12.98H135.773V16.536C135.773 16.9 135.861 17.18 136.039 17.376C136.216 17.5627 136.473 17.656 136.809 17.656C137.201 17.656 137.527 17.5533 137.789 17.348L138.279 18.594Z" fill="#323232"/>
<path d="M193.354 19.14C192.598 19.14 191.865 19.0327 191.156 18.818C190.456 18.6033 189.901 18.3187 189.49 17.964L190.12 16.55C190.521 16.8673 191.011 17.1287 191.59 17.334C192.178 17.53 192.766 17.628 193.354 17.628C194.082 17.628 194.623 17.5113 194.978 17.278C195.342 17.0447 195.524 16.7367 195.524 16.354C195.524 16.074 195.421 15.8453 195.216 15.668C195.02 15.4813 194.768 15.3367 194.46 15.234C194.152 15.1313 193.732 15.0147 193.2 14.884C192.453 14.7067 191.847 14.5293 191.38 14.352C190.923 14.1747 190.526 13.8993 190.19 13.526C189.863 13.1433 189.7 12.63 189.7 11.986C189.7 11.4447 189.845 10.9547 190.134 10.516C190.433 10.068 190.876 9.71333 191.464 9.452C192.061 9.19067 192.789 9.06 193.648 9.06C194.245 9.06 194.833 9.13467 195.412 9.284C195.991 9.43333 196.49 9.648 196.91 9.928L196.336 11.342C195.907 11.09 195.459 10.8987 194.992 10.768C194.525 10.6373 194.073 10.572 193.634 10.572C192.915 10.572 192.379 10.6933 192.024 10.936C191.679 11.1787 191.506 11.5007 191.506 11.902C191.506 12.182 191.604 12.4107 191.8 12.588C192.005 12.7653 192.262 12.9053 192.57 13.008C192.878 13.1107 193.298 13.2273 193.83 13.358C194.558 13.526 195.155 13.7033 195.622 13.89C196.089 14.0673 196.485 14.3427 196.812 14.716C197.148 15.0893 197.316 15.5933 197.316 16.228C197.316 16.7693 197.167 17.2593 196.868 17.698C196.579 18.1367 196.135 18.4867 195.538 18.748C194.941 19.0093 194.213 19.14 193.354 19.14ZM203.097 11.44C203.825 11.44 204.473 11.5987 205.043 11.916C205.621 12.2333 206.074 12.6813 206.401 13.26C206.727 13.8387 206.891 14.506 206.891 15.262C206.891 16.018 206.727 16.69 206.401 17.278C206.074 17.8567 205.621 18.3047 205.043 18.622C204.473 18.9393 203.825 19.098 203.097 19.098C202.089 19.098 201.291 18.762 200.703 18.09V21.716H198.953V11.524H200.619V12.504C200.908 12.1493 201.263 11.8833 201.683 11.706C202.112 11.5287 202.583 11.44 203.097 11.44ZM202.901 17.6C203.545 17.6 204.072 17.3853 204.483 16.956C204.903 16.5267 205.113 15.962 205.113 15.262C205.113 14.562 204.903 13.9973 204.483 13.568C204.072 13.1387 203.545 12.924 202.901 12.924C202.481 12.924 202.103 13.022 201.767 13.218C201.431 13.4047 201.165 13.6753 200.969 14.03C200.773 14.3847 200.675 14.7953 200.675 15.262C200.675 15.7287 200.773 16.1393 200.969 16.494C201.165 16.8487 201.431 17.124 201.767 17.32C202.103 17.5067 202.481 17.6 202.901 17.6ZM215.578 15.304C215.578 15.4253 215.569 15.598 215.55 15.822H209.684C209.787 16.3727 210.053 16.8113 210.482 17.138C210.921 17.4553 211.462 17.614 212.106 17.614C212.928 17.614 213.604 17.3433 214.136 16.802L215.074 17.88C214.738 18.2813 214.314 18.5847 213.8 18.79C213.287 18.9953 212.708 19.098 212.064 19.098C211.243 19.098 210.52 18.9347 209.894 18.608C209.269 18.2813 208.784 17.8287 208.438 17.25C208.102 16.662 207.934 15.9993 207.934 15.262C207.934 14.534 208.098 13.8807 208.424 13.302C208.76 12.714 209.222 12.2567 209.81 11.93C210.398 11.6033 211.061 11.44 211.798 11.44C212.526 11.44 213.175 11.6033 213.744 11.93C214.323 12.2473 214.771 12.7 215.088 13.288C215.415 13.8667 215.578 14.5387 215.578 15.304ZM211.798 12.84C211.238 12.84 210.762 13.008 210.37 13.344C209.988 13.6707 209.754 14.1093 209.67 14.66H213.912C213.838 14.1187 213.609 13.68 213.226 13.344C212.844 13.008 212.368 12.84 211.798 12.84ZM219.91 11.44C221.012 11.44 221.852 11.706 222.43 12.238C223.018 12.7607 223.312 13.554 223.312 14.618V19H221.66V18.09C221.446 18.4167 221.138 18.6687 220.736 18.846C220.344 19.014 219.868 19.098 219.308 19.098C218.748 19.098 218.258 19.0047 217.838 18.818C217.418 18.622 217.092 18.356 216.858 18.02C216.634 17.6747 216.522 17.2873 216.522 16.858C216.522 16.186 216.77 15.6493 217.264 15.248C217.768 14.8373 218.557 14.632 219.63 14.632H221.562V14.52C221.562 13.9973 221.404 13.596 221.086 13.316C220.778 13.036 220.316 12.896 219.7 12.896C219.28 12.896 218.865 12.9613 218.454 13.092C218.053 13.2227 217.712 13.4047 217.432 13.638L216.746 12.364C217.138 12.0653 217.61 11.8367 218.16 11.678C218.711 11.5193 219.294 11.44 219.91 11.44ZM219.672 17.824C220.111 17.824 220.498 17.726 220.834 17.53C221.18 17.3247 221.422 17.0353 221.562 16.662V15.794H219.756C218.748 15.794 218.244 16.1253 218.244 16.788C218.244 17.1053 218.37 17.3573 218.622 17.544C218.874 17.7307 219.224 17.824 219.672 17.824ZM228.61 15.794L227.308 17.026V19H225.558V8.612H227.308V14.884L230.934 11.524H233.034L229.912 14.66L233.328 19H231.2L228.61 15.794ZM241.172 15.304C241.172 15.4253 241.163 15.598 241.144 15.822H235.278C235.381 16.3727 235.647 16.8113 236.076 17.138C236.515 17.4553 237.056 17.614 237.7 17.614C238.521 17.614 239.198 17.3433 239.73 16.802L240.668 17.88C240.332 18.2813 239.907 18.5847 239.394 18.79C238.881 18.9953 238.302 19.098 237.658 19.098C236.837 19.098 236.113 18.9347 235.488 18.608C234.863 18.2813 234.377 17.8287 234.032 17.25C233.696 16.662 233.528 15.9993 233.528 15.262C233.528 14.534 233.691 13.8807 234.018 13.302C234.354 12.714 234.816 12.2567 235.404 11.93C235.992 11.6033 236.655 11.44 237.392 11.44C238.12 11.44 238.769 11.6033 239.338 11.93C239.917 12.2473 240.365 12.7 240.682 13.288C241.009 13.8667 241.172 14.5387 241.172 15.304ZM237.392 12.84C236.832 12.84 236.356 13.008 235.964 13.344C235.581 13.6707 235.348 14.1093 235.264 14.66H239.506C239.431 14.1187 239.203 13.68 238.82 13.344C238.437 13.008 237.961 12.84 237.392 12.84ZM244.519 12.616C245.023 11.832 245.91 11.44 247.179 11.44V13.106C247.03 13.078 246.894 13.064 246.773 13.064C246.092 13.064 245.56 13.2647 245.177 13.666C244.794 14.058 244.603 14.6273 244.603 15.374V19H242.853V11.524H244.519V12.616ZM251.001 19.098C250.394 19.098 249.802 19.0187 249.223 18.86C248.644 18.7013 248.182 18.5007 247.837 18.258L248.509 16.928C248.845 17.152 249.246 17.334 249.713 17.474C250.189 17.6047 250.656 17.67 251.113 17.67C252.158 17.67 252.681 17.3947 252.681 16.844C252.681 16.5827 252.546 16.4007 252.275 16.298C252.014 16.1953 251.589 16.0973 251.001 16.004C250.385 15.9107 249.881 15.8033 249.489 15.682C249.106 15.5607 248.77 15.3507 248.481 15.052C248.201 14.744 248.061 14.3193 248.061 13.778C248.061 13.0687 248.355 12.504 248.943 12.084C249.54 11.6547 250.343 11.44 251.351 11.44C251.864 11.44 252.378 11.5007 252.891 11.622C253.404 11.734 253.824 11.888 254.151 12.084L253.479 13.414C252.844 13.0407 252.13 12.854 251.337 12.854C250.824 12.854 250.432 12.9333 250.161 13.092C249.9 13.2413 249.769 13.442 249.769 13.694C249.769 13.974 249.909 14.1747 250.189 14.296C250.478 14.408 250.922 14.5153 251.519 14.618C252.116 14.7113 252.606 14.8187 252.989 14.94C253.372 15.0613 253.698 15.2667 253.969 15.556C254.249 15.8453 254.389 16.256 254.389 16.788C254.389 17.488 254.086 18.048 253.479 18.468C252.872 18.888 252.046 19.098 251.001 19.098Z" fill="#323232"/>
<path d="M312.672 16.732H307.772L306.806 19H304.93L309.34 9.2H311.132L315.556 19H313.652L312.672 16.732ZM312.07 15.304L310.222 11.02L308.388 15.304H312.07ZM323.986 11.524V17.866C323.986 20.498 322.642 21.814 319.954 21.814C319.235 21.814 318.554 21.7207 317.91 21.534C317.266 21.3567 316.734 21.0953 316.314 20.75L317.098 19.434C317.425 19.7047 317.835 19.9193 318.33 20.078C318.834 20.246 319.343 20.33 319.856 20.33C320.677 20.33 321.279 20.1433 321.662 19.77C322.045 19.3967 322.236 18.8273 322.236 18.062V17.67C321.937 17.9967 321.573 18.244 321.144 18.412C320.715 18.58 320.243 18.664 319.73 18.664C319.021 18.664 318.377 18.5147 317.798 18.216C317.229 17.908 316.776 17.4787 316.44 16.928C316.113 16.3773 315.95 15.7473 315.95 15.038C315.95 14.3287 316.113 13.7033 316.44 13.162C316.776 12.6113 317.229 12.1867 317.798 11.888C318.377 11.5893 319.021 11.44 319.73 11.44C320.271 11.44 320.761 11.5287 321.2 11.706C321.648 11.8833 322.021 12.154 322.32 12.518V11.524H323.986ZM319.996 17.18C320.659 17.18 321.2 16.984 321.62 16.592C322.049 16.1907 322.264 15.6727 322.264 15.038C322.264 14.4127 322.049 13.904 321.62 13.512C321.2 13.12 320.659 12.924 319.996 12.924C319.324 12.924 318.773 13.12 318.344 13.512C317.924 13.904 317.714 14.4127 317.714 15.038C317.714 15.6727 317.924 16.1907 318.344 16.592C318.773 16.984 319.324 17.18 319.996 17.18ZM333.315 15.304C333.315 15.4253 333.305 15.598 333.287 15.822H327.421C327.523 16.3727 327.789 16.8113 328.219 17.138C328.657 17.4553 329.199 17.614 329.843 17.614C330.664 17.614 331.341 17.3433 331.873 16.802L332.811 17.88C332.475 18.2813 332.05 18.5847 331.537 18.79C331.023 18.9953 330.445 19.098 329.801 19.098C328.979 19.098 328.256 18.9347 327.631 18.608C327.005 18.2813 326.52 17.8287 326.175 17.25C325.839 16.662 325.671 15.9993 325.671 15.262C325.671 14.534 325.834 13.8807 326.161 13.302C326.497 12.714 326.959 12.2567 327.547 11.93C328.135 11.6033 328.797 11.44 329.535 11.44C330.263 11.44 330.911 11.6033 331.481 11.93C332.059 12.2473 332.507 12.7 332.825 13.288C333.151 13.8667 333.315 14.5387 333.315 15.304ZM329.535 12.84C328.975 12.84 328.499 13.008 328.107 13.344C327.724 13.6707 327.491 14.1093 327.407 14.66H331.649C331.574 14.1187 331.345 13.68 330.963 13.344C330.58 13.008 330.104 12.84 329.535 12.84ZM339.238 11.44C340.18 11.44 340.936 11.7153 341.506 12.266C342.075 12.8167 342.36 13.6333 342.36 14.716V19H340.61V14.94C340.61 14.2867 340.456 13.7967 340.148 13.47C339.84 13.134 339.401 12.966 338.832 12.966C338.188 12.966 337.679 13.162 337.306 13.554C336.932 13.9367 336.746 14.492 336.746 15.22V19H334.996V11.524H336.662V12.49C336.951 12.1447 337.315 11.8833 337.754 11.706C338.192 11.5287 338.687 11.44 339.238 11.44ZM351.97 8.612V19H350.29V18.034C350.001 18.3887 349.641 18.6547 349.212 18.832C348.792 19.0093 348.325 19.098 347.812 19.098C347.093 19.098 346.445 18.9393 345.866 18.622C345.297 18.3047 344.849 17.8567 344.522 17.278C344.195 16.69 344.032 16.018 344.032 15.262C344.032 14.506 344.195 13.8387 344.522 13.26C344.849 12.6813 345.297 12.2333 345.866 11.916C346.445 11.5987 347.093 11.44 347.812 11.44C348.307 11.44 348.759 11.524 349.17 11.692C349.581 11.86 349.931 12.112 350.22 12.448V8.612H351.97ZM348.022 17.6C348.442 17.6 348.82 17.5067 349.156 17.32C349.492 17.124 349.758 16.8487 349.954 16.494C350.15 16.1393 350.248 15.7287 350.248 15.262C350.248 14.7953 350.15 14.3847 349.954 14.03C349.758 13.6753 349.492 13.4047 349.156 13.218C348.82 13.022 348.442 12.924 348.022 12.924C347.602 12.924 347.224 13.022 346.888 13.218C346.552 13.4047 346.286 13.6753 346.09 14.03C345.894 14.3847 345.796 14.7953 345.796 15.262C345.796 15.7287 345.894 16.1393 346.09 16.494C346.286 16.8487 346.552 17.124 346.888 17.32C347.224 17.5067 347.602 17.6 348.022 17.6ZM357.115 11.44C358.217 11.44 359.057 11.706 359.635 12.238C360.223 12.7607 360.517 13.554 360.517 14.618V19H358.865V18.09C358.651 18.4167 358.343 18.6687 357.941 18.846C357.549 19.014 357.073 19.098 356.513 19.098C355.953 19.098 355.463 19.0047 355.043 18.818C354.623 18.622 354.297 18.356 354.063 18.02C353.839 17.6747 353.727 17.2873 353.727 16.858C353.727 16.186 353.975 15.6493 354.469 15.248C354.973 14.8373 355.762 14.632 356.835 14.632H358.767V14.52C358.767 13.9973 358.609 13.596 358.291 13.316C357.983 13.036 357.521 12.896 356.905 12.896C356.485 12.896 356.07 12.9613 355.659 13.092C355.258 13.2227 354.917 13.4047 354.637 13.638L353.951 12.364C354.343 12.0653 354.815 11.8367 355.365 11.678C355.916 11.5193 356.499 11.44 357.115 11.44ZM356.877 17.824C357.316 17.824 357.703 17.726 358.039 17.53C358.385 17.3247 358.627 17.0353 358.767 16.662V15.794H356.961C355.953 15.794 355.449 16.1253 355.449 16.788C355.449 17.1053 355.575 17.3573 355.827 17.544C356.079 17.7307 356.429 17.824 356.877 17.824Z" fill="#323232"/>
<path d="M417.852 19.14C416.863 19.14 415.967 18.9253 415.164 18.496C414.371 18.0573 413.745 17.4553 413.288 16.69C412.84 15.9247 412.616 15.0613 412.616 14.1C412.616 13.1387 412.845 12.2753 413.302 11.51C413.759 10.7447 414.385 10.1473 415.178 9.718C415.981 9.27933 416.877 9.06 417.866 9.06C418.669 9.06 419.401 9.2 420.064 9.48C420.727 9.76 421.287 10.166 421.744 10.698L420.568 11.804C419.859 11.0387 418.986 10.656 417.95 10.656C417.278 10.656 416.676 10.8053 416.144 11.104C415.612 11.3933 415.197 11.7993 414.898 12.322C414.599 12.8447 414.45 13.4373 414.45 14.1C414.45 14.7627 414.599 15.3553 414.898 15.878C415.197 16.4007 415.612 16.8113 416.144 17.11C416.676 17.3993 417.278 17.544 417.95 17.544C418.986 17.544 419.859 17.1567 420.568 16.382L421.744 17.502C421.287 18.034 420.722 18.44 420.05 18.72C419.387 19 418.655 19.14 417.852 19.14ZM426.406 19.098C425.65 19.098 424.969 18.9347 424.362 18.608C423.756 18.2813 423.28 17.8287 422.934 17.25C422.598 16.662 422.43 15.9993 422.43 15.262C422.43 14.5247 422.598 13.8667 422.934 13.288C423.28 12.7093 423.756 12.2567 424.362 11.93C424.969 11.6033 425.65 11.44 426.406 11.44C427.172 11.44 427.858 11.6033 428.464 11.93C429.071 12.2567 429.542 12.7093 429.878 13.288C430.224 13.8667 430.396 14.5247 430.396 15.262C430.396 15.9993 430.224 16.662 429.878 17.25C429.542 17.8287 429.071 18.2813 428.464 18.608C427.858 18.9347 427.172 19.098 426.406 19.098ZM426.406 17.6C427.05 17.6 427.582 17.3853 428.002 16.956C428.422 16.5267 428.632 15.962 428.632 15.262C428.632 14.562 428.422 13.9973 428.002 13.568C427.582 13.1387 427.05 12.924 426.406 12.924C425.762 12.924 425.23 13.1387 424.81 13.568C424.4 13.9973 424.194 14.562 424.194 15.262C424.194 15.962 424.4 16.5267 424.81 16.956C425.23 17.3853 425.762 17.6 426.406 17.6ZM436.312 11.44C437.255 11.44 438.011 11.7153 438.58 12.266C439.149 12.8167 439.434 13.6333 439.434 14.716V19H437.684V14.94C437.684 14.2867 437.53 13.7967 437.222 13.47C436.914 13.134 436.475 12.966 435.906 12.966C435.262 12.966 434.753 13.162 434.38 13.554C434.007 13.9367 433.82 14.492 433.82 15.22V19H432.07V11.524H433.736V12.49C434.025 12.1447 434.389 11.8833 434.828 11.706C435.267 11.5287 435.761 11.44 436.312 11.44ZM446.148 18.594C445.943 18.762 445.691 18.888 445.392 18.972C445.103 19.056 444.795 19.098 444.468 19.098C443.647 19.098 443.012 18.8833 442.564 18.454C442.116 18.0247 441.892 17.3993 441.892 16.578V12.98H440.66V11.58H441.892V9.872H443.642V11.58H445.644V12.98H443.642V16.536C443.642 16.9 443.731 17.18 443.908 17.376C444.085 17.5627 444.342 17.656 444.678 17.656C445.07 17.656 445.397 17.5533 445.658 17.348L446.148 18.594ZM450.443 11.44C451.545 11.44 452.385 11.706 452.963 12.238C453.551 12.7607 453.845 13.554 453.845 14.618V19H452.193V18.09C451.979 18.4167 451.671 18.6687 451.269 18.846C450.877 19.014 450.401 19.098 449.841 19.098C449.281 19.098 448.791 19.0047 448.371 18.818C447.951 18.622 447.625 18.356 447.391 18.02C447.167 17.6747 447.055 17.2873 447.055 16.858C447.055 16.186 447.303 15.6493 447.797 15.248C448.301 14.8373 449.09 14.632 450.163 14.632H452.095V14.52C452.095 13.9973 451.937 13.596 451.619 13.316C451.311 13.036 450.849 12.896 450.233 12.896C449.813 12.896 449.398 12.9613 448.987 13.092C448.586 13.2227 448.245 13.4047 447.965 13.638L447.279 12.364C447.671 12.0653 448.143 11.8367 448.693 11.678C449.244 11.5193 449.827 11.44 450.443 11.44ZM450.205 17.824C450.644 17.824 451.031 17.726 451.367 17.53C451.713 17.3247 451.955 17.0353 452.095 16.662V15.794H450.289C449.281 15.794 448.777 16.1253 448.777 16.788C448.777 17.1053 448.903 17.3573 449.155 17.544C449.407 17.7307 449.757 17.824 450.205 17.824ZM459.59 19.098C458.815 19.098 458.12 18.9347 457.504 18.608C456.888 18.2813 456.407 17.8287 456.062 17.25C455.716 16.662 455.544 15.9993 455.544 15.262C455.544 14.5247 455.716 13.8667 456.062 13.288C456.407 12.7093 456.883 12.2567 457.49 11.93C458.106 11.6033 458.806 11.44 459.59 11.44C460.327 11.44 460.971 11.5893 461.522 11.888C462.082 12.1867 462.502 12.616 462.782 13.176L461.438 13.96C461.223 13.6147 460.952 13.358 460.626 13.19C460.308 13.0127 459.958 12.924 459.576 12.924C458.922 12.924 458.381 13.1387 457.952 13.568C457.522 13.988 457.308 14.5527 457.308 15.262C457.308 15.9713 457.518 16.5407 457.938 16.97C458.367 17.39 458.913 17.6 459.576 17.6C459.958 17.6 460.308 17.516 460.626 17.348C460.952 17.1707 461.223 16.9093 461.438 16.564L462.782 17.348C462.492 17.908 462.068 18.342 461.508 18.65C460.957 18.9487 460.318 19.098 459.59 19.098ZM468.884 18.594C468.679 18.762 468.427 18.888 468.128 18.972C467.839 19.056 467.531 19.098 467.204 19.098C466.383 19.098 465.748 18.8833 465.3 18.454C464.852 18.0247 464.628 17.3993 464.628 16.578V12.98H463.396V11.58H464.628V9.872H466.378V11.58H468.38V12.98H466.378V16.536C466.378 16.9 466.467 17.18 466.644 17.376C466.822 17.5627 467.078 17.656 467.414 17.656C467.806 17.656 468.133 17.5533 468.394 17.348L468.884 18.594Z" fill="#323232"/>
</svg>
